HIERARCHY
ROOT Hips
{
	OFFSET 0.00000 0.00000 0.00000
	CHANNELS 6 Xposition Yposition Zposition Zrotation Yrotation Xrotation 
	JOINT LHipJoint
	{
		OFFSET 0 0 0
		CHANNELS 3 Zrotation Yrotation Xrotation
		JOINT LeftUpLeg
		{
			OFFSET 1.64577 -1.42384 0.94276
			CHANNELS 3 Zrotation Yrotation Xrotation
			JOINT LeftLeg
			{
				OFFSET 2.11538 -5.81197 0.00000
				CHANNELS 3 Zrotation Yrotation Xrotation
				JOINT LeftFoot
				{
					OFFSET 2.36541 -6.49893 0.00000
					CHANNELS 3 Zrotation Yrotation Xrotation
					JOINT LeftToeBase
					{
						OFFSET 0.17759 -0.48793 1.73865
						CHANNELS 3 Zrotation Yrotation Xrotation
						End Site
						{
							OFFSET 0.00000 -0.00000 0.91205
						}
					}
				}
			}
		}
	}
	JOINT RHipJoint
	{
		OFFSET 0 0 0
		CHANNELS 3 Zrotation Yrotation Xrotation
		JOINT RightUpLeg
		{
			OFFSET -1.43750 -1.42384 0.94276
			CHANNELS 3 Zrotation Yrotation Xrotation
			JOINT RightLeg
			{
				OFFSET -2.10480 -5.78291 0.00000
				CHANNELS 3 Zrotation Yrotation Xrotation
				JOINT RightFoot
				{
					OFFSET -2.34880 -6.45329 0.00000
					CHANNELS 3 Zrotation Yrotation Xrotation
					JOINT RightToeBase
					{
						OFFSET -0.22842 -0.62757 1.80469
						CHANNELS 3 Zrotation Yrotation Xrotation
						End Site
						{
							OFFSET -0.00000 -0.00000 0.95886
						}
					}
				}
			}
		}
	}
	JOINT LowerBack
	{
		OFFSET 0 0 0
		CHANNELS 3 Zrotation Yrotation Xrotation
		JOINT Spine
		{
			OFFSET 0.06217 1.93758 -0.49272
			CHANNELS 3 Zrotation Yrotation Xrotation
			JOINT Spine1
			{
				OFFSET -0.03114 2.03621 -0.05830
				CHANNELS 3 Zrotation Yrotation Xrotation
				JOINT Neck
				{
					OFFSET 0 0 0
					CHANNELS 3 Zrotation Yrotation Xrotation
					JOINT Neck1
					{
						OFFSET 0.04421 1.41010 0.26562
						CHANNELS 3 Zrotation Yrotation Xrotation
						JOINT Head
						{
							OFFSET -0.13407 1.43847 0.06181
							CHANNELS 3 Zrotation Yrotation Xrotation
							End Site
							{
								OFFSET -0.04980 1.45844 -0.00689
							}
						}
					}
				}
				JOINT LeftShoulder
				{
					OFFSET 0 0 0
					CHANNELS 3 Zrotation Yrotation Xrotation
					JOINT LeftArm
					{
						OFFSET 2.18382 1.47753 -0.35694
						CHANNELS 3 Zrotation Yrotation Xrotation
						JOINT LeftForeArm
						{
							OFFSET 5.05460 -0.00000 0.00000
							CHANNELS 3 Zrotation Yrotation Xrotation
							JOINT LeftHand
							{
								OFFSET 3.39013 -0.00000 0.00000
								CHANNELS 3 Zrotation Yrotation Xrotation
								JOINT LeftFingerBase
								{
									OFFSET 0 0 0
									CHANNELS 3 Zrotation Yrotation Xrotation
									JOINT LeftHandIndex1
									{
										OFFSET 0.57242 -0.00000 -0.00000
										CHANNELS 3 Zrotation Yrotation Xrotation
										End Site
										{
											OFFSET 0.46150 -0.00000 -0.00000
										}
									}
								}
								JOINT LThumb
								{
									OFFSET 0 0 0
									CHANNELS 3 Zrotation Yrotation Xrotation
									End Site
									{
										OFFSET 0.46855 -0.00000 0.46855
									}
								}
							}
						}
					}
				}
				JOINT RightShoulder
				{
					OFFSET 0 0 0
					CHANNELS 3 Zrotation Yrotation Xrotation
					JOINT RightArm
					{
						OFFSET -2.06033 1.72839 -0.47437
						CHANNELS 3 Zrotation Yrotation Xrotation
						JOINT RightForeArm
						{
							OFFSET -5.07010 -0.00000 0.00000
							CHANNELS 3 Zrotation Yrotation Xrotation
							JOINT RightHand
							{
								OFFSET -3.14957 -0.00000 -0.00000
								CHANNELS 3 Zrotation Yrotation Xrotation
								JOINT RightFingerBase
								{
									OFFSET 0 0 0
									CHANNELS 3 Zrotation Yrotation Xrotation
									JOINT RightHandIndex1
									{
										OFFSET -0.71819 -0.00000 -0.00000
										CHANNELS 3 Zrotation Yrotation Xrotation
										End Site
										{
											OFFSET -0.57902 -0.00000 -0.00000
										}
									}
								}
								JOINT RThumb
								{
									OFFSET 0 0 0
									CHANNELS 3 Zrotation Yrotation Xrotation
									End Site
									{
										OFFSET -0.58786 -0.00000 0.58786
									}
								}
							}
						}
					}
				}
			}
		}
	}
}
MOTION
Frames: 12
Frame Time: .0083333
9.6093 15.2075 -2.2967 0 0 0 0 0 0 -21 0 0 0 0 0 0 0 0 0 0 0 0 0 0 21 0 0 0 0 0 0 0 0 0 0 0 0 0 0 0 0 0 0 0 0 0 0 -16 0 0 21 0 0 11 0 0 0 -8 0 0 0 0 0 0 0 0 0 0 0 0 0 0 0 0 0 0 0 0 8 0 0 0 0 0 0 0 0 0 0 0 0 0 0 0 0 0
9.6093 15.2075 -2.2967 -2.2115 -72.0961 1.0140 0.0000 0.0000 0.0000 -26.7160 -19.5848 2.5803 2.7823 10.3341 30.0655 2.2418 15.7721 -37.4539 0.0021 -0.2960 -0.8133 0.0000 0.0000 0.0000 28.0246 16.0246 -1.4979 -2.8659 -10.4747 30.5279 -4.4159 -17.1892 -47.8601 -0.0377 1.2540 -3.4479 -0.8202 1.5857 1.8611 -0.7596 2.0809 3.9277 -0.3062 1.0052 2.9893 7.8006 2.2551 -10.5257 -4.3153 2.3337 20.2349 -2.5190 1.2011 8.1458 0.0000 -0.0000 0.0000 -87.9465 1.8642 20.0948 16.4340 -26.1056 -3.8349 -0.0000 0.0000 -0.0040 20.4771 11.4024 4.2223 -7.1250 0.0000 -0.0000 -5.9853 42.0530 0.4369 0.0000 -0.0000 0.0000 87.9008 -1.6464 21.0359 -17.0725 26.9533 -4.1202 0.0000 -0.0000 -14.8388 -15.6269 -0.9921 0.2775 7.1250 -0.0000 -0.0000 8.6920 -30.9416 3.0167
9.6018 15.2064 -2.3028 -1.7862 -71.9358 0.6946 0.0000 0.0000 0.0000 -26.8102 -19.6835 2.5748 2.7657 10.3057 29.9726 2.2132 15.8494 -37.3699 0.0055 -0.4796 -1.3178 0.0000 0.0000 0.0000 27.8737 15.9180 -1.6801 -2.8851 -10.5066 30.6335 -4.4392 -17.1567 -47.9280 -0.0386 1.2676 -3.4855 -0.7594 1.5746 1.8300 -0.8487 2.0690 3.8820 -0.4314 1.0030 2.9652 7.8736 2.3658 -10.6474 -4.1945 2.4323 20.8283 -2.4871 1.2649 8.3750 0.0000 -0.0000 0.0000 -87.9263 1.9485 20.0968 16.4497 -26.1266 -3.8419 -0.0000 -0.0000 0.1638 20.3724 11.3711 4.1875 -7.1250 0.0000 -0.0000 -6.0732 42.0096 0.4499 0.0000 -0.0000 0.0000 88.0142 -1.7370 21.1739 -17.1559 27.0629 -4.1580 0.0000 -0.0000 -14.6079 -16.1249 -1.4810 0.4281 7.1250 -0.0000 -0.0000 8.3458 -31.4538 2.7906
9.5929 15.2071 -2.3113 -1.2800 -71.8432 0.3385 0.0000 0.0000 0.0000 -26.9097 -19.8110 2.4914 2.7664 10.3069 29.9765 2.2094 15.8816 -37.3766 0.0080 -0.5786 -1.5900 0.0000 0.0000 0.0000 27.7366 15.9816 -1.7766 -2.8840 -10.5049 30.6277 -4.4910 -17.0603 -48.0639 -0.0281 1.0815 -2.9731 -0.8158 1.5831 1.6726 -0.8856 2.0844 3.8730 -0.4332 1.0097 3.0438 7.7801 2.4889 -10.7532 -3.9433 2.5526 21.3328 -2.3789 1.3389 8.5703 0.0000 -0.0000 0.0000 -87.9397 1.8943 20.1202 16.3671 -26.0159 -3.8056 -0.0000 -0.0000 0.3130 20.2414 11.1962 4.0954 -7.1250 0.0000 -0.0000 -6.1601 41.8127 0.4864 0.0000 -0.0000 0.0000 88.1016 -1.7303 20.9390 -17.2171 27.1430 -4.1859 0.0000 -0.0000 -14.2855 -16.2156 -1.7144 0.4985 7.1250 -0.0000 -0.0000 8.2969 -31.6963 2.7251
9.5825 15.2072 -2.3218 -1.6821 -71.8486 0.6933 0.0000 0.0000 0.0000 -26.7416 -19.7928 2.5559 2.7692 10.3117 29.9920 2.2275 15.8912 -37.4759 0.0081 -0.5817 -1.5984 0.0000 0.0000 0.0000 27.9561 15.9648 -1.7099 -2.8819 -10.5015 30.6163 -4.4798 -17.1124 -48.0537 -0.0270 1.0608 -2.9162 -0.6890 1.5422 1.6481 -0.7652 2.0274 3.9121 -0.3797 0.9828 3.0978 7.8599 2.7163 -10.9266 -4.0638 2.8589 22.0500 -2.4075 1.4765 8.8709 -0.0000 0.0000 0.0000 -88.0661 1.8321 19.9008 16.2777 -25.8957 -3.7664 -0.0000 -0.0000 0.2592 20.0449 11.3220 4.0971 -7.1250 0.0000 -0.0000 -6.3555 41.9257 0.4842 -0.0000 0.0000 0.0000 87.9613 -1.6967 21.0660 -17.2264 27.1553 -4.1901 0.0000 -0.0000 -14.3682 -16.0797 -1.5441 0.4450 7.1250 -0.0000 -0.0000 8.3881 -31.5179 2.7919
9.5733 15.2070 -2.3325 -1.6996 -71.8024 0.7092 0.0000 0.0000 0.0000 -26.6869 -19.8060 2.5706 2.7739 10.3198 30.0186 2.2288 15.9157 -37.5022 0.0102 -0.6520 -1.7917 0.0000 0.0000 0.0000 28.0441 15.9792 -1.6620 -2.8778 -10.4946 30.5938 -4.4964 -17.1380 -48.1319 -0.0238 0.9955 -2.7364 -0.6256 1.5316 1.6419 -0.7272 2.0125 3.9210 -0.3759 0.9766 3.1112 7.9723 2.8738 -10.9748 -4.1190 3.0578 22.5759 -2.4293 1.5728 9.0782 0.0000 -0.0000 0.0000 -88.1093 1.8206 19.8170 16.2282 -25.8291 -3.7448 -0.0000 -0.0000 0.2303 19.8051 11.2893 4.0326 -7.1250 0.0000 -0.0000 -6.5625 41.8680 0.5095 0.0000 -0.0000 0.0000 87.9357 -1.7023 21.0783 -17.2491 27.1850 -4.2005 0.0000 -0.0000 -14.3165 -16.1084 -1.5645 0.4518 7.1250 -0.0000 -0.0000 8.3672 -31.5394 2.7805
9.5638 15.2063 -2.3443 -1.6716 -71.7662 0.6537 0.0000 0.0000 0.0000 -26.6465 -19.7917 2.5894 2.7835 10.3361 30.0720 2.2261 15.9353 -37.5038 0.0129 -0.7320 -2.0115 0.0000 0.0000 0.0000 28.1348 16.0004 -1.5655 -2.8702 -10.4819 30.5518 -4.5157 -17.1660 -48.2214 -0.0204 0.9224 -2.5353 -0.5850 1.5225 1.6672 -0.6872 1.9988 3.9353 -0.3581 0.9703 3.1116 8.1495 3.0160 -10.9221 -4.2745 3.2543 22.9886 -2.4963 1.6632 9.2314 -0.0000 0.0000 0.0000 -88.1489 1.8014 19.7297 16.1761 -25.7589 -3.7222 -0.0000 -0.0000 0.1740 19.5294 11.2457 3.9570 -7.1250 0.0000 -0.0000 -6.7989 41.7955 0.5402 -0.0000 0.0000 0.0000 87.8967 -1.7058 21.1018 -17.2603 27.1996 -4.2056 0.0000 -0.0000 -14.3265 -16.1089 -1.5320 0.4424 7.1250 -0.0000 -0.0000 8.3636 -31.5060 2.7861
9.5540 15.2051 -2.3567 -1.5491 -71.7300 0.4890 0.0000 0.0000 0.0000 -26.6384 -19.7511 2.6361 2.7871 10.3421 30.0917 2.2112 15.9614 -37.4494 0.0166 -0.8307 -2.2831 0.0000 0.0000 0.0000 28.2018 16.0245 -1.4629 -2.8696 -10.4809 30.5484 -4.5478 -17.1640 -48.3402 -0.0171 0.8445 -2.3212 -0.5692 1.5131 1.7103 -0.6554 1.9848 3.9541 -0.3354 0.9630 3.1062 8.3925 3.1269 -10.7476 -4.5438 3.4317 23.2609 -2.6158 1.7390 9.3156 0.0000 0.0000 0.0000 -88.1835 1.7784 19.6465 16.1266 -25.6919 -3.7007 -0.0000 -0.0000 0.1217 19.2586 11.2062 3.8844 -7.1250 0.0000 -0.0000 -7.0315 41.7281 0.5707 0.0000 0.0000 0.0000 87.8544 -1.7105 21.1451 -17.2672 27.2087 -4.2088 0.0000 -0.0000 -14.3952 -16.1139 -1.4795 0.4274 7.1250 -0.0000 -0.0000 8.3544 -31.4521 2.7939
9.5439 15.2033 -2.3697 -1.2957 -71.6831 0.1960 0.0000 0.0000 0.0000 -26.6718 -19.7023 2.6929 2.7869 10.3419 30.0911 2.1921 15.9670 -37.3566 0.0208 -0.9312 -2.5594 0.0000 0.0000 0.0000 28.2270 16.0505 -1.3633 -2.8732 -10.4869 30.5683 -4.5927 -17.1296 -48.4868 -0.0136 0.7539 -2.0719 -0.5846 1.4995 1.7582 -0.6357 1.9653 3.9724 -0.3078 0.9523 3.0969 8.6681 3.1953 -10.4546 -4.9098 3.5773 23.3913 -2.7778 1.7936 9.3283 0.0000 -0.0000 0.0000 -88.2168 1.7610 19.5748 16.0833 -25.6334 -3.6819 -0.0000 -0.0000 0.0930 19.0367 11.1744 3.8256 -7.1250 0.0000 -0.0000 -7.2218 41.6736 0.5960 0.0000 -0.0000 0.0000 87.8177 -1.7176 21.1800 -17.2747 27.2185 -4.2122 0.0000 -0.0000 -14.4790 -16.1222 -1.4521 0.4197 7.1250 -0.0000 -0.0000 8.3451 -31.4241 2.7964
9.5330 15.2009 -2.3823 -0.9421 -71.6387 -0.1901 0.0000 0.0000 0.0000 -26.7424 -19.6501 2.7627 2.7832 10.3355 30.0703 2.1754 15.9525 -37.2598 0.0247 -1.0148 -2.7894 0.0000 0.0000 0.0000 28.2121 16.0685 -1.2748 -2.8808 -10.4996 30.6102 -4.6429 -17.0627 -48.6331 -0.0106 0.6645 -1.8261 -0.6184 1.4808 1.7891 -0.6233 1.9393 3.9954 -0.2771 0.9378 3.1017 8.9265 3.2180 -10.0699 -5.3371 3.6860 23.4038 -2.9622 1.8244 9.2805 -0.0000 0.0000 0.0000 -88.2540 1.7511 19.5177 16.0445 -25.5809 -3.6652 -0.0000 -0.0000 0.1078 18.9274 11.1428 3.7914 -7.1250 0.0000 -0.0000 -7.3127 41.6303 0.6115 -0.0000 0.0000 0.0000 87.7820 -1.7193 21.2016 -17.2854 27.2324 -4.2171 0.0000 -0.0000 -14.5563 -16.1213 -1.4763 0.4266 7.1250 -0.0000 -0.0000 8.3483 -31.4489 2.7924
9.5213 15.1978 -2.3945 -0.5852 -71.6002 -0.5737 0.0000 0.0000 0.0000 -26.8174 -19.5977 2.8416 2.7769 10.3249 30.0352 2.1635 15.9259 -37.1779 0.0278 -1.0772 -2.9612 0.0000 0.0000 0.0000 28.1866 16.0706 -1.2011 -2.8912 -10.5168 30.6669 -4.6935 -16.9693 -48.7649 -0.0082 0.5858 -1.6098 -0.6398 1.4527 1.7969 -0.6091 1.9011 4.0270 -0.2506 0.9175 3.1287 9.1485 3.2084 -9.6829 -5.8045 3.7671 23.3909 -3.1574 1.8357 9.2211 0.0000 -0.0000 0.0000 -88.2989 1.7553 19.4657 16.0122 -25.5372 -3.6512 -0.0000 -0.0000 0.1937 18.9871 11.1177 3.7958 -7.1250 0.0000 -0.0000 -7.2556 41.6097 0.6103 0.0000 -0.0000 0.0000 87.7394 -1.7108 21.2361 -17.3014 27.2533 -4.2244 0.0000 -0.0000 -14.6238 -16.1189 -1.5579 0.4502 7.1250 -0.0000 -0.0000 8.3583 -31.5330 2.7788
9.5086 15.1945 -2.4064 -0.2862 -71.5616 -0.8924 0.0000 0.0000 0.0000 -26.8710 -19.5478 2.9189 2.7701 10.3132 29.9970 2.1587 15.8968 -37.1298 0.0298 -1.1147 -3.0644 0.0000 0.0000 0.0000 28.1715 16.0539 -1.1413 -2.9021 -10.5348 30.7266 -4.7435 -16.8581 -48.8840 -0.0064 0.5168 -1.4201 -0.6265 1.4164 1.7901 -0.5932 1.8521 4.0562 -0.2416 0.8928 3.1627 9.3069 3.1723 -9.3311 -6.2473 3.8150 23.4061 -3.3374 1.8287 9.1737 0.0000 -0.0000 0.0000 -88.3374 1.7987 19.4296 15.9991 -25.5194 -3.6456 -0.0000 -0.0000 0.3074 19.1714 11.0888 3.8256 -7.1250 0.0000 -0.0000 -7.0878 41.5972 0.5983 0.0000 -0.0000 0.0000 87.7003 -1.7079 21.2753 -17.3192 27.2767 -4.2326 0.0000 -0.0000 -14.6714 -16.1281 -1.6889 0.4883 7.1250 -0.0000 -0.0000 8.3640 -31.6680 2.7533
